M48
;GenerationSoftware,Autodesk,EAGLE,9.6.2*%
;CreationDate,2023-02-24T21:23:37Z*%
FMAT,2
ICI,OFF
METRIC,TZ,000.000
T4C0.330
T3C0.400
T2C0.610
T1C1.016
%
G90
M71
T1
X41275Y20955
X41275Y23495
X41275Y18415
X41275Y15875
X41275Y9525
X41275Y12065
X41275Y6985
T2
X33973Y6826
X32702Y6826
X31432Y6826
X30162Y6826
T3
X33496Y19685
X32067Y10954
X22066Y13732
T4
X18415Y8573
X12065Y6985
X20003Y19368
X13970Y17939
X12065Y20320
X12065Y10160
X13970Y12541
X13970Y14922
X16986Y14922
X20003Y14922
X20796Y9049
X21907Y9049
X25876Y9208
X31115Y9525
X33338Y8890
X32067Y12700
X34290Y12700
X36830Y12700
X34290Y14922
X29686Y16192
X27940Y14287
X25400Y16192
X30242Y18971
X36909Y18733
X39211Y24447
X29051Y6032
X24924Y6032
X9525Y6032
X9525Y24447
X12065Y21907
X10795Y14922
X8414Y14922
X22542Y21114
X27226Y24447
X27464Y18891
X31909Y20796
X5080Y22225
X5080Y6985
X21273Y21907
X21273Y21114
X5080Y8255
X26511Y15716
X18098Y18574
X15399Y19368
X26829Y18018
X25876Y18018
X23654Y21590
X25241Y20320
X29448Y18415
X31750Y23495
X24289Y10160
X26829Y10319
X5080Y9525
X27146Y15081
X10795Y17145
X18891Y19050
X24289Y11430
X13335Y11747
X28099Y17066
X12859Y17939
X10795Y12859
X27781Y10319
X23177Y24447
X5080Y10795
X5080Y12065
X5080Y20955
X5080Y19685
X5080Y18415
X5080Y17145
X18415Y21907
X12065Y8573
X12065Y23495
X25797Y10239
M30