G04 EAGLE Gerber RS-274X export*
G75*
%MOMM*%
%FSLAX34Y34*%
%LPD*%
%INSoldermask Bottom*%
%IPPOS*%
%AMOC8*
5,1,8,0,0,1.08239X$1,22.5*%
G01*
%ADD10C,0.381750*%
%ADD11C,0.380419*%
%ADD12C,0.371909*%
%ADD13C,0.376934*%
%ADD14C,0.465400*%
%ADD15C,0.379119*%
%ADD16C,0.379988*%
%ADD17P,1.787026X8X22.500000*%
%ADD18P,1.347143X8X112.500000*%
%ADD19C,0.380069*%


D10*
X376862Y92412D02*
X376862Y105864D01*
X388314Y105864D01*
X388314Y92412D01*
X376862Y92412D01*
X376862Y96039D02*
X388314Y96039D01*
X388314Y99666D02*
X376862Y99666D01*
X376862Y103293D02*
X388314Y103293D01*
X388314Y75864D02*
X388314Y62412D01*
X376862Y62412D01*
X376862Y75864D01*
X388314Y75864D01*
X388314Y66039D02*
X376862Y66039D01*
X376862Y69666D02*
X388314Y69666D01*
X388314Y73293D02*
X376862Y73293D01*
D11*
X355542Y78880D02*
X355542Y83346D01*
X362008Y83346D01*
X362008Y78880D01*
X355542Y78880D01*
X355542Y82494D02*
X362008Y82494D01*
X355542Y70346D02*
X355542Y65880D01*
X355542Y70346D02*
X362008Y70346D01*
X362008Y65880D01*
X355542Y65880D01*
X355542Y69494D02*
X362008Y69494D01*
D12*
X386749Y167737D02*
X386749Y176289D01*
X394301Y176289D01*
X394301Y167737D01*
X386749Y167737D01*
X386749Y171270D02*
X394301Y171270D01*
X394301Y174803D02*
X386749Y174803D01*
X386749Y159289D02*
X386749Y150737D01*
X386749Y159289D02*
X394301Y159289D01*
X394301Y150737D01*
X386749Y150737D01*
X386749Y154270D02*
X394301Y154270D01*
X394301Y157803D02*
X386749Y157803D01*
D13*
X326221Y159174D02*
X316527Y159174D01*
X316527Y179028D01*
X326221Y179028D01*
X326221Y159174D01*
X326221Y162755D02*
X316527Y162755D01*
X316527Y166336D02*
X326221Y166336D01*
X326221Y169917D02*
X316527Y169917D01*
X316527Y173498D02*
X326221Y173498D01*
X326221Y177079D02*
X316527Y177079D01*
X339641Y159174D02*
X349335Y159174D01*
X339641Y159174D02*
X339641Y179028D01*
X349335Y179028D01*
X349335Y159174D01*
X349335Y162755D02*
X339641Y162755D01*
X339641Y166336D02*
X349335Y166336D01*
X349335Y169917D02*
X339641Y169917D01*
X339641Y173498D02*
X349335Y173498D01*
X349335Y177079D02*
X339641Y177079D01*
X362755Y159174D02*
X372449Y159174D01*
X362755Y159174D02*
X362755Y179028D01*
X372449Y179028D01*
X372449Y159174D01*
X372449Y162755D02*
X362755Y162755D01*
X362755Y166336D02*
X372449Y166336D01*
X372449Y169917D02*
X362755Y169917D01*
X362755Y173498D02*
X372449Y173498D01*
X372449Y177079D02*
X362755Y177079D01*
D14*
X360796Y97815D02*
X328180Y97815D01*
X328180Y116431D01*
X360796Y116431D01*
X360796Y97815D01*
X360796Y102236D02*
X328180Y102236D01*
X328180Y106657D02*
X360796Y106657D01*
X360796Y111078D02*
X328180Y111078D01*
X328180Y115499D02*
X360796Y115499D01*
D10*
X379749Y204164D02*
X393201Y204164D01*
X393201Y192712D01*
X379749Y192712D01*
X379749Y204164D01*
X379749Y196339D02*
X393201Y196339D01*
X393201Y199966D02*
X379749Y199966D01*
X379749Y203593D02*
X393201Y203593D01*
X363201Y192712D02*
X349749Y192712D01*
X349749Y204164D01*
X363201Y204164D01*
X363201Y192712D01*
X363201Y196339D02*
X349749Y196339D01*
X349749Y199966D02*
X363201Y199966D01*
X363201Y203593D02*
X349749Y203593D01*
D11*
X191296Y68321D02*
X186830Y68321D01*
X191296Y68321D02*
X191296Y61855D01*
X186830Y61855D01*
X186830Y68321D01*
X186830Y65469D02*
X191296Y65469D01*
X178296Y68321D02*
X173830Y68321D01*
X178296Y68321D02*
X178296Y61855D01*
X173830Y61855D01*
X173830Y68321D01*
X173830Y65469D02*
X178296Y65469D01*
D12*
X203124Y61312D02*
X211676Y61312D01*
X203124Y61312D02*
X203124Y68864D01*
X211676Y68864D01*
X211676Y61312D01*
X211676Y64845D02*
X203124Y64845D01*
X203124Y68378D02*
X211676Y68378D01*
X220124Y61312D02*
X228676Y61312D01*
X220124Y61312D02*
X220124Y68864D01*
X228676Y68864D01*
X228676Y61312D01*
X228676Y64845D02*
X220124Y64845D01*
X220124Y68378D02*
X228676Y68378D01*
D15*
X301940Y196973D02*
X301940Y199953D01*
X301940Y196973D02*
X294560Y196973D01*
X294560Y199953D01*
X301940Y199953D01*
X301940Y206473D02*
X301940Y209453D01*
X301940Y206473D02*
X294560Y206473D01*
X294560Y209453D01*
X301940Y209453D01*
X301940Y215973D02*
X301940Y218953D01*
X301940Y215973D02*
X294560Y215973D01*
X294560Y218953D01*
X301940Y218953D01*
X327840Y218953D02*
X327840Y215973D01*
X320460Y215973D01*
X320460Y218953D01*
X327840Y218953D01*
X327840Y199953D02*
X327840Y196973D01*
X320460Y196973D01*
X320460Y199953D01*
X327840Y199953D01*
D11*
X268783Y196792D02*
X264317Y196792D01*
X264317Y203258D01*
X268783Y203258D01*
X268783Y196792D01*
X268783Y200406D02*
X264317Y200406D01*
X277317Y196792D02*
X281783Y196792D01*
X277317Y196792D02*
X277317Y203258D01*
X281783Y203258D01*
X281783Y196792D01*
X281783Y200406D02*
X277317Y200406D01*
D16*
X200085Y91573D02*
X200085Y79103D01*
X193615Y79103D01*
X193615Y91573D01*
X200085Y91573D01*
X200085Y82713D02*
X193615Y82713D01*
X193615Y86323D02*
X200085Y86323D01*
X200085Y89933D02*
X193615Y89933D01*
X193615Y229103D02*
X193615Y241573D01*
X200085Y241573D01*
X200085Y229103D01*
X193615Y229103D01*
X193615Y232713D02*
X200085Y232713D01*
X200085Y236323D02*
X193615Y236323D01*
X193615Y239933D02*
X200085Y239933D01*
X104715Y241573D02*
X104715Y229103D01*
X104715Y241573D02*
X111185Y241573D01*
X111185Y229103D01*
X104715Y229103D01*
X104715Y232713D02*
X111185Y232713D01*
X111185Y236323D02*
X104715Y236323D01*
X104715Y239933D02*
X111185Y239933D01*
X117415Y241573D02*
X117415Y229103D01*
X117415Y241573D02*
X123885Y241573D01*
X123885Y229103D01*
X117415Y229103D01*
X117415Y232713D02*
X123885Y232713D01*
X123885Y236323D02*
X117415Y236323D01*
X117415Y239933D02*
X123885Y239933D01*
X130115Y241573D02*
X130115Y229103D01*
X130115Y241573D02*
X136585Y241573D01*
X136585Y229103D01*
X130115Y229103D01*
X130115Y232713D02*
X136585Y232713D01*
X136585Y236323D02*
X130115Y236323D01*
X130115Y239933D02*
X136585Y239933D01*
X142815Y241573D02*
X142815Y229103D01*
X142815Y241573D02*
X149285Y241573D01*
X149285Y229103D01*
X142815Y229103D01*
X142815Y232713D02*
X149285Y232713D01*
X149285Y236323D02*
X142815Y236323D01*
X142815Y239933D02*
X149285Y239933D01*
X155515Y241573D02*
X155515Y229103D01*
X155515Y241573D02*
X161985Y241573D01*
X161985Y229103D01*
X155515Y229103D01*
X155515Y232713D02*
X161985Y232713D01*
X161985Y236323D02*
X155515Y236323D01*
X155515Y239933D02*
X161985Y239933D01*
X168215Y241573D02*
X168215Y229103D01*
X168215Y241573D02*
X174685Y241573D01*
X174685Y229103D01*
X168215Y229103D01*
X168215Y232713D02*
X174685Y232713D01*
X174685Y236323D02*
X168215Y236323D01*
X168215Y239933D02*
X174685Y239933D01*
X180915Y241573D02*
X180915Y229103D01*
X180915Y241573D02*
X187385Y241573D01*
X187385Y229103D01*
X180915Y229103D01*
X180915Y232713D02*
X187385Y232713D01*
X187385Y236323D02*
X180915Y236323D01*
X180915Y239933D02*
X187385Y239933D01*
X187385Y91573D02*
X187385Y79103D01*
X180915Y79103D01*
X180915Y91573D01*
X187385Y91573D01*
X187385Y82713D02*
X180915Y82713D01*
X180915Y86323D02*
X187385Y86323D01*
X187385Y89933D02*
X180915Y89933D01*
X174685Y91573D02*
X174685Y79103D01*
X168215Y79103D01*
X168215Y91573D01*
X174685Y91573D01*
X174685Y82713D02*
X168215Y82713D01*
X168215Y86323D02*
X174685Y86323D01*
X174685Y89933D02*
X168215Y89933D01*
X161985Y91573D02*
X161985Y79103D01*
X155515Y79103D01*
X155515Y91573D01*
X161985Y91573D01*
X161985Y82713D02*
X155515Y82713D01*
X155515Y86323D02*
X161985Y86323D01*
X161985Y89933D02*
X155515Y89933D01*
X149285Y91573D02*
X149285Y79103D01*
X142815Y79103D01*
X142815Y91573D01*
X149285Y91573D01*
X149285Y82713D02*
X142815Y82713D01*
X142815Y86323D02*
X149285Y86323D01*
X149285Y89933D02*
X142815Y89933D01*
X136585Y91573D02*
X136585Y79103D01*
X130115Y79103D01*
X130115Y91573D01*
X136585Y91573D01*
X136585Y82713D02*
X130115Y82713D01*
X130115Y86323D02*
X136585Y86323D01*
X136585Y89933D02*
X130115Y89933D01*
X123885Y91573D02*
X123885Y79103D01*
X117415Y79103D01*
X117415Y91573D01*
X123885Y91573D01*
X123885Y82713D02*
X117415Y82713D01*
X117415Y86323D02*
X123885Y86323D01*
X123885Y89933D02*
X117415Y89933D01*
X111185Y91573D02*
X111185Y79103D01*
X104715Y79103D01*
X104715Y91573D01*
X111185Y91573D01*
X111185Y82713D02*
X104715Y82713D01*
X104715Y86323D02*
X111185Y86323D01*
X111185Y89933D02*
X104715Y89933D01*
D15*
X267973Y233435D02*
X267973Y236415D01*
X275353Y236415D01*
X275353Y233435D01*
X267973Y233435D01*
X267973Y226915D02*
X267973Y223935D01*
X267973Y226915D02*
X275353Y226915D01*
X275353Y223935D01*
X267973Y223935D01*
X267973Y217415D02*
X267973Y214435D01*
X267973Y217415D02*
X275353Y217415D01*
X275353Y214435D01*
X267973Y214435D01*
X242073Y214435D02*
X242073Y217415D01*
X249453Y217415D01*
X249453Y214435D01*
X242073Y214435D01*
X242073Y233435D02*
X242073Y236415D01*
X249453Y236415D01*
X249453Y233435D01*
X242073Y233435D01*
D11*
X289717Y231717D02*
X294183Y231717D01*
X289717Y231717D02*
X289717Y238183D01*
X294183Y238183D01*
X294183Y231717D01*
X294183Y235331D02*
X289717Y235331D01*
X302717Y231717D02*
X307183Y231717D01*
X302717Y231717D02*
X302717Y238183D01*
X307183Y238183D01*
X307183Y231717D01*
X307183Y235331D02*
X302717Y235331D01*
D17*
X412750Y209550D03*
X412750Y234950D03*
X412750Y184150D03*
X412750Y158750D03*
X412750Y95250D03*
X412750Y120650D03*
X412750Y69850D03*
D18*
X327025Y68263D03*
X314325Y68263D03*
X301625Y68263D03*
X339725Y68263D03*
D11*
X239771Y134142D02*
X239771Y138608D01*
X239771Y134142D02*
X233305Y134142D01*
X233305Y138608D01*
X239771Y138608D01*
X239771Y137756D02*
X233305Y137756D01*
X239771Y147142D02*
X239771Y151608D01*
X239771Y147142D02*
X233305Y147142D01*
X233305Y151608D01*
X239771Y151608D01*
X239771Y150756D02*
X233305Y150756D01*
X345280Y231717D02*
X349746Y231717D01*
X345280Y231717D02*
X345280Y238183D01*
X349746Y238183D01*
X349746Y231717D01*
X349746Y235331D02*
X345280Y235331D01*
X358280Y231717D02*
X362746Y231717D01*
X358280Y231717D02*
X358280Y238183D01*
X362746Y238183D01*
X362746Y231717D01*
X362746Y235331D02*
X358280Y235331D01*
D19*
X375678Y235365D02*
X375678Y240835D01*
X383148Y240835D01*
X383148Y235365D01*
X375678Y235365D01*
X375678Y238976D02*
X383148Y238976D01*
X375678Y221835D02*
X375678Y216365D01*
X375678Y221835D02*
X383148Y221835D01*
X383148Y216365D01*
X375678Y216365D01*
X375678Y219976D02*
X383148Y219976D01*
M02*
