G04 EAGLE Gerber RS-274X export*
G75*
%MOMM*%
%FSLAX34Y34*%
%LPD*%
%INSolderpaste Bottom*%
%IPPOS*%
%AMOC8*
5,1,8,0,0,1.08239X$1,22.5*%
G01*
%ADD10C,0.252000*%
%ADD11C,0.250000*%
%ADD12C,0.256031*%
%ADD13C,0.330000*%
%ADD14C,0.253000*%
%ADD15C,0.256000*%


D10*
X376848Y92398D02*
X376848Y105878D01*
X388328Y105878D01*
X388328Y92398D01*
X376848Y92398D01*
X376848Y94792D02*
X388328Y94792D01*
X388328Y97186D02*
X376848Y97186D01*
X376848Y99580D02*
X388328Y99580D01*
X388328Y101974D02*
X376848Y101974D01*
X376848Y104368D02*
X388328Y104368D01*
X388328Y75878D02*
X388328Y62398D01*
X376848Y62398D01*
X376848Y75878D01*
X388328Y75878D01*
X388328Y64792D02*
X376848Y64792D01*
X376848Y67186D02*
X388328Y67186D01*
X388328Y69580D02*
X376848Y69580D01*
X376848Y71974D02*
X388328Y71974D01*
X388328Y74368D02*
X376848Y74368D01*
X355535Y78873D02*
X355535Y83353D01*
X362015Y83353D01*
X362015Y78873D01*
X355535Y78873D01*
X355535Y81267D02*
X362015Y81267D01*
X355535Y70353D02*
X355535Y65873D01*
X355535Y70353D02*
X362015Y70353D01*
X362015Y65873D01*
X355535Y65873D01*
X355535Y68267D02*
X362015Y68267D01*
D11*
X386775Y167763D02*
X386775Y176263D01*
X394275Y176263D01*
X394275Y167763D01*
X386775Y167763D01*
X386775Y170138D02*
X394275Y170138D01*
X394275Y172513D02*
X386775Y172513D01*
X386775Y174888D02*
X394275Y174888D01*
X386775Y159263D02*
X386775Y150763D01*
X386775Y159263D02*
X394275Y159263D01*
X394275Y150763D01*
X386775Y150763D01*
X386775Y153138D02*
X394275Y153138D01*
X394275Y155513D02*
X386775Y155513D01*
X386775Y157888D02*
X394275Y157888D01*
D12*
X326190Y159205D02*
X316558Y159205D01*
X316558Y178997D01*
X326190Y178997D01*
X326190Y159205D01*
X326190Y161637D02*
X316558Y161637D01*
X316558Y164069D02*
X326190Y164069D01*
X326190Y166501D02*
X316558Y166501D01*
X316558Y168933D02*
X326190Y168933D01*
X326190Y171365D02*
X316558Y171365D01*
X316558Y173797D02*
X326190Y173797D01*
X326190Y176229D02*
X316558Y176229D01*
X316558Y178661D02*
X326190Y178661D01*
X339672Y159205D02*
X349304Y159205D01*
X339672Y159205D02*
X339672Y178997D01*
X349304Y178997D01*
X349304Y159205D01*
X349304Y161637D02*
X339672Y161637D01*
X339672Y164069D02*
X349304Y164069D01*
X349304Y166501D02*
X339672Y166501D01*
X339672Y168933D02*
X349304Y168933D01*
X349304Y171365D02*
X339672Y171365D01*
X339672Y173797D02*
X349304Y173797D01*
X349304Y176229D02*
X339672Y176229D01*
X339672Y178661D02*
X349304Y178661D01*
X362786Y159205D02*
X372418Y159205D01*
X362786Y159205D02*
X362786Y178997D01*
X372418Y178997D01*
X372418Y159205D01*
X372418Y161637D02*
X362786Y161637D01*
X362786Y164069D02*
X372418Y164069D01*
X372418Y166501D02*
X362786Y166501D01*
X362786Y168933D02*
X372418Y168933D01*
X372418Y171365D02*
X362786Y171365D01*
X362786Y173797D02*
X372418Y173797D01*
X372418Y176229D02*
X362786Y176229D01*
X362786Y178661D02*
X372418Y178661D01*
D13*
X360838Y97773D02*
X328138Y97773D01*
X328138Y116473D01*
X360838Y116473D01*
X360838Y97773D01*
X360838Y100908D02*
X328138Y100908D01*
X328138Y104043D02*
X360838Y104043D01*
X360838Y107178D02*
X328138Y107178D01*
X328138Y110313D02*
X360838Y110313D01*
X360838Y113448D02*
X328138Y113448D01*
D10*
X379735Y204178D02*
X393215Y204178D01*
X393215Y192698D01*
X379735Y192698D01*
X379735Y204178D01*
X379735Y195092D02*
X393215Y195092D01*
X393215Y197486D02*
X379735Y197486D01*
X379735Y199880D02*
X393215Y199880D01*
X393215Y202274D02*
X379735Y202274D01*
X363215Y192698D02*
X349735Y192698D01*
X349735Y204178D01*
X363215Y204178D01*
X363215Y192698D01*
X363215Y195092D02*
X349735Y195092D01*
X349735Y197486D02*
X363215Y197486D01*
X363215Y199880D02*
X349735Y199880D01*
X349735Y202274D02*
X363215Y202274D01*
X191303Y68328D02*
X186823Y68328D01*
X191303Y68328D02*
X191303Y61848D01*
X186823Y61848D01*
X186823Y68328D01*
X186823Y64242D02*
X191303Y64242D01*
X191303Y66636D02*
X186823Y66636D01*
X178303Y68328D02*
X173823Y68328D01*
X178303Y68328D02*
X178303Y61848D01*
X173823Y61848D01*
X173823Y68328D01*
X173823Y64242D02*
X178303Y64242D01*
X178303Y66636D02*
X173823Y66636D01*
D11*
X203150Y61338D02*
X211650Y61338D01*
X203150Y61338D02*
X203150Y68838D01*
X211650Y68838D01*
X211650Y61338D01*
X211650Y63713D02*
X203150Y63713D01*
X203150Y66088D02*
X211650Y66088D01*
X211650Y68463D02*
X203150Y68463D01*
X220150Y61338D02*
X228650Y61338D01*
X220150Y61338D02*
X220150Y68838D01*
X228650Y68838D01*
X228650Y61338D01*
X228650Y63713D02*
X220150Y63713D01*
X220150Y66088D02*
X228650Y66088D01*
X228650Y68463D02*
X220150Y68463D01*
D14*
X301935Y196978D02*
X301935Y199948D01*
X301935Y196978D02*
X294565Y196978D01*
X294565Y199948D01*
X301935Y199948D01*
X301935Y199381D02*
X294565Y199381D01*
X301935Y206478D02*
X301935Y209448D01*
X301935Y206478D02*
X294565Y206478D01*
X294565Y209448D01*
X301935Y209448D01*
X301935Y208881D02*
X294565Y208881D01*
X301935Y215978D02*
X301935Y218948D01*
X301935Y215978D02*
X294565Y215978D01*
X294565Y218948D01*
X301935Y218948D01*
X301935Y218381D02*
X294565Y218381D01*
X327835Y218948D02*
X327835Y215978D01*
X320465Y215978D01*
X320465Y218948D01*
X327835Y218948D01*
X327835Y218381D02*
X320465Y218381D01*
X327835Y199948D02*
X327835Y196978D01*
X320465Y196978D01*
X320465Y199948D01*
X327835Y199948D01*
X327835Y199381D02*
X320465Y199381D01*
D10*
X268790Y196785D02*
X264310Y196785D01*
X264310Y203265D01*
X268790Y203265D01*
X268790Y196785D01*
X268790Y199179D02*
X264310Y199179D01*
X264310Y201573D02*
X268790Y201573D01*
X277310Y196785D02*
X281790Y196785D01*
X277310Y196785D02*
X277310Y203265D01*
X281790Y203265D01*
X281790Y196785D01*
X281790Y199179D02*
X277310Y199179D01*
X277310Y201573D02*
X281790Y201573D01*
X200090Y91578D02*
X200090Y79098D01*
X193610Y79098D01*
X193610Y91578D01*
X200090Y91578D01*
X200090Y81492D02*
X193610Y81492D01*
X193610Y83886D02*
X200090Y83886D01*
X200090Y86280D02*
X193610Y86280D01*
X193610Y88674D02*
X200090Y88674D01*
X200090Y91068D02*
X193610Y91068D01*
X193610Y229098D02*
X193610Y241578D01*
X200090Y241578D01*
X200090Y229098D01*
X193610Y229098D01*
X193610Y231492D02*
X200090Y231492D01*
X200090Y233886D02*
X193610Y233886D01*
X193610Y236280D02*
X200090Y236280D01*
X200090Y238674D02*
X193610Y238674D01*
X193610Y241068D02*
X200090Y241068D01*
X104710Y241578D02*
X104710Y229098D01*
X104710Y241578D02*
X111190Y241578D01*
X111190Y229098D01*
X104710Y229098D01*
X104710Y231492D02*
X111190Y231492D01*
X111190Y233886D02*
X104710Y233886D01*
X104710Y236280D02*
X111190Y236280D01*
X111190Y238674D02*
X104710Y238674D01*
X104710Y241068D02*
X111190Y241068D01*
X117410Y241578D02*
X117410Y229098D01*
X117410Y241578D02*
X123890Y241578D01*
X123890Y229098D01*
X117410Y229098D01*
X117410Y231492D02*
X123890Y231492D01*
X123890Y233886D02*
X117410Y233886D01*
X117410Y236280D02*
X123890Y236280D01*
X123890Y238674D02*
X117410Y238674D01*
X117410Y241068D02*
X123890Y241068D01*
X130110Y241578D02*
X130110Y229098D01*
X130110Y241578D02*
X136590Y241578D01*
X136590Y229098D01*
X130110Y229098D01*
X130110Y231492D02*
X136590Y231492D01*
X136590Y233886D02*
X130110Y233886D01*
X130110Y236280D02*
X136590Y236280D01*
X136590Y238674D02*
X130110Y238674D01*
X130110Y241068D02*
X136590Y241068D01*
X142810Y241578D02*
X142810Y229098D01*
X142810Y241578D02*
X149290Y241578D01*
X149290Y229098D01*
X142810Y229098D01*
X142810Y231492D02*
X149290Y231492D01*
X149290Y233886D02*
X142810Y233886D01*
X142810Y236280D02*
X149290Y236280D01*
X149290Y238674D02*
X142810Y238674D01*
X142810Y241068D02*
X149290Y241068D01*
X155510Y241578D02*
X155510Y229098D01*
X155510Y241578D02*
X161990Y241578D01*
X161990Y229098D01*
X155510Y229098D01*
X155510Y231492D02*
X161990Y231492D01*
X161990Y233886D02*
X155510Y233886D01*
X155510Y236280D02*
X161990Y236280D01*
X161990Y238674D02*
X155510Y238674D01*
X155510Y241068D02*
X161990Y241068D01*
X168210Y241578D02*
X168210Y229098D01*
X168210Y241578D02*
X174690Y241578D01*
X174690Y229098D01*
X168210Y229098D01*
X168210Y231492D02*
X174690Y231492D01*
X174690Y233886D02*
X168210Y233886D01*
X168210Y236280D02*
X174690Y236280D01*
X174690Y238674D02*
X168210Y238674D01*
X168210Y241068D02*
X174690Y241068D01*
X180910Y241578D02*
X180910Y229098D01*
X180910Y241578D02*
X187390Y241578D01*
X187390Y229098D01*
X180910Y229098D01*
X180910Y231492D02*
X187390Y231492D01*
X187390Y233886D02*
X180910Y233886D01*
X180910Y236280D02*
X187390Y236280D01*
X187390Y238674D02*
X180910Y238674D01*
X180910Y241068D02*
X187390Y241068D01*
X187390Y91578D02*
X187390Y79098D01*
X180910Y79098D01*
X180910Y91578D01*
X187390Y91578D01*
X187390Y81492D02*
X180910Y81492D01*
X180910Y83886D02*
X187390Y83886D01*
X187390Y86280D02*
X180910Y86280D01*
X180910Y88674D02*
X187390Y88674D01*
X187390Y91068D02*
X180910Y91068D01*
X174690Y91578D02*
X174690Y79098D01*
X168210Y79098D01*
X168210Y91578D01*
X174690Y91578D01*
X174690Y81492D02*
X168210Y81492D01*
X168210Y83886D02*
X174690Y83886D01*
X174690Y86280D02*
X168210Y86280D01*
X168210Y88674D02*
X174690Y88674D01*
X174690Y91068D02*
X168210Y91068D01*
X161990Y91578D02*
X161990Y79098D01*
X155510Y79098D01*
X155510Y91578D01*
X161990Y91578D01*
X161990Y81492D02*
X155510Y81492D01*
X155510Y83886D02*
X161990Y83886D01*
X161990Y86280D02*
X155510Y86280D01*
X155510Y88674D02*
X161990Y88674D01*
X161990Y91068D02*
X155510Y91068D01*
X149290Y91578D02*
X149290Y79098D01*
X142810Y79098D01*
X142810Y91578D01*
X149290Y91578D01*
X149290Y81492D02*
X142810Y81492D01*
X142810Y83886D02*
X149290Y83886D01*
X149290Y86280D02*
X142810Y86280D01*
X142810Y88674D02*
X149290Y88674D01*
X149290Y91068D02*
X142810Y91068D01*
X136590Y91578D02*
X136590Y79098D01*
X130110Y79098D01*
X130110Y91578D01*
X136590Y91578D01*
X136590Y81492D02*
X130110Y81492D01*
X130110Y83886D02*
X136590Y83886D01*
X136590Y86280D02*
X130110Y86280D01*
X130110Y88674D02*
X136590Y88674D01*
X136590Y91068D02*
X130110Y91068D01*
X123890Y91578D02*
X123890Y79098D01*
X117410Y79098D01*
X117410Y91578D01*
X123890Y91578D01*
X123890Y81492D02*
X117410Y81492D01*
X117410Y83886D02*
X123890Y83886D01*
X123890Y86280D02*
X117410Y86280D01*
X117410Y88674D02*
X123890Y88674D01*
X123890Y91068D02*
X117410Y91068D01*
X111190Y91578D02*
X111190Y79098D01*
X104710Y79098D01*
X104710Y91578D01*
X111190Y91578D01*
X111190Y81492D02*
X104710Y81492D01*
X104710Y83886D02*
X111190Y83886D01*
X111190Y86280D02*
X104710Y86280D01*
X104710Y88674D02*
X111190Y88674D01*
X111190Y91068D02*
X104710Y91068D01*
D14*
X267978Y233440D02*
X267978Y236410D01*
X275348Y236410D01*
X275348Y233440D01*
X267978Y233440D01*
X267978Y235843D02*
X275348Y235843D01*
X267978Y226910D02*
X267978Y223940D01*
X267978Y226910D02*
X275348Y226910D01*
X275348Y223940D01*
X267978Y223940D01*
X267978Y226343D02*
X275348Y226343D01*
X267978Y217410D02*
X267978Y214440D01*
X267978Y217410D02*
X275348Y217410D01*
X275348Y214440D01*
X267978Y214440D01*
X267978Y216843D02*
X275348Y216843D01*
X242078Y217410D02*
X242078Y214440D01*
X242078Y217410D02*
X249448Y217410D01*
X249448Y214440D01*
X242078Y214440D01*
X242078Y216843D02*
X249448Y216843D01*
X242078Y233440D02*
X242078Y236410D01*
X249448Y236410D01*
X249448Y233440D01*
X242078Y233440D01*
X242078Y235843D02*
X249448Y235843D01*
D10*
X289710Y231710D02*
X294190Y231710D01*
X289710Y231710D02*
X289710Y238190D01*
X294190Y238190D01*
X294190Y231710D01*
X294190Y234104D02*
X289710Y234104D01*
X289710Y236498D02*
X294190Y236498D01*
X302710Y231710D02*
X307190Y231710D01*
X302710Y231710D02*
X302710Y238190D01*
X307190Y238190D01*
X307190Y231710D01*
X307190Y234104D02*
X302710Y234104D01*
X302710Y236498D02*
X307190Y236498D01*
X239778Y138615D02*
X239778Y134135D01*
X233298Y134135D01*
X233298Y138615D01*
X239778Y138615D01*
X239778Y136529D02*
X233298Y136529D01*
X239778Y147135D02*
X239778Y151615D01*
X239778Y147135D02*
X233298Y147135D01*
X233298Y151615D01*
X239778Y151615D01*
X239778Y149529D02*
X233298Y149529D01*
X345273Y231710D02*
X349753Y231710D01*
X345273Y231710D02*
X345273Y238190D01*
X349753Y238190D01*
X349753Y231710D01*
X349753Y234104D02*
X345273Y234104D01*
X345273Y236498D02*
X349753Y236498D01*
X358273Y231710D02*
X362753Y231710D01*
X358273Y231710D02*
X358273Y238190D01*
X362753Y238190D01*
X362753Y231710D01*
X362753Y234104D02*
X358273Y234104D01*
X358273Y236498D02*
X362753Y236498D01*
D15*
X375693Y235380D02*
X375693Y240820D01*
X383133Y240820D01*
X383133Y235380D01*
X375693Y235380D01*
X375693Y237812D02*
X383133Y237812D01*
X383133Y240244D02*
X375693Y240244D01*
X375693Y221820D02*
X375693Y216380D01*
X375693Y221820D02*
X383133Y221820D01*
X383133Y216380D01*
X375693Y216380D01*
X375693Y218812D02*
X383133Y218812D01*
X383133Y221244D02*
X375693Y221244D01*
M02*
