G04 EAGLE Gerber RS-274X export*
G75*
%MOMM*%
%FSLAX34Y34*%
%LPD*%
%INSoldermask Top*%
%IPPOS*%
%AMOC8*
5,1,8,0,0,1.08239X$1,22.5*%
G01*
%ADD10C,0.381000*%
%ADD11C,0.380419*%
%ADD12C,1.397000*%
%ADD13C,0.379119*%
%ADD14C,0.380069*%
%ADD15C,0.371909*%
%ADD16C,0.379988*%
%ADD17P,1.787026X8X22.500000*%
%ADD18P,1.347143X8X112.500000*%
%ADD19C,1.627000*%


D10*
X313250Y210655D02*
X313250Y203195D01*
X308250Y203195D02*
X308250Y210655D01*
X303250Y210655D02*
X303250Y203195D01*
X298250Y203195D02*
X298250Y210655D01*
X293250Y210655D02*
X293250Y203195D01*
X288250Y203195D02*
X288250Y210655D01*
X283250Y210655D02*
X283250Y203195D01*
X278250Y203195D02*
X278250Y210655D01*
X273250Y210655D02*
X273250Y203195D01*
X268250Y203195D02*
X268250Y210655D01*
X263250Y210655D02*
X263250Y203195D01*
X258250Y203195D02*
X258250Y210655D01*
X244480Y189425D02*
X237020Y189425D01*
X237020Y184425D02*
X244480Y184425D01*
X244480Y179425D02*
X237020Y179425D01*
X237020Y174425D02*
X244480Y174425D01*
X244480Y169425D02*
X237020Y169425D01*
X237020Y164425D02*
X244480Y164425D01*
X244480Y159425D02*
X237020Y159425D01*
X237020Y154425D02*
X244480Y154425D01*
X244480Y149425D02*
X237020Y149425D01*
X237020Y144425D02*
X244480Y144425D01*
X244480Y139425D02*
X237020Y139425D01*
X237020Y134425D02*
X244480Y134425D01*
X258250Y120655D02*
X258250Y113195D01*
X263250Y113195D02*
X263250Y120655D01*
X268250Y120655D02*
X268250Y113195D01*
X273250Y113195D02*
X273250Y120655D01*
X278250Y120655D02*
X278250Y113195D01*
X283250Y113195D02*
X283250Y120655D01*
X288250Y120655D02*
X288250Y113195D01*
X293250Y113195D02*
X293250Y120655D01*
X298250Y120655D02*
X298250Y113195D01*
X303250Y113195D02*
X303250Y120655D01*
X308250Y120655D02*
X308250Y113195D01*
X313250Y113195D02*
X313250Y120655D01*
X327020Y134425D02*
X334480Y134425D01*
X334480Y139425D02*
X327020Y139425D01*
X327020Y144425D02*
X334480Y144425D01*
X334480Y149425D02*
X327020Y149425D01*
X327020Y154425D02*
X334480Y154425D01*
X334480Y159425D02*
X327020Y159425D01*
X327020Y164425D02*
X334480Y164425D01*
X334480Y169425D02*
X327020Y169425D01*
X327020Y174425D02*
X334480Y174425D01*
X334480Y179425D02*
X327020Y179425D01*
X327020Y184425D02*
X334480Y184425D01*
X334480Y189425D02*
X327020Y189425D01*
D11*
X328555Y116683D02*
X328555Y112217D01*
X328555Y116683D02*
X335021Y116683D01*
X335021Y112217D01*
X328555Y112217D01*
X328555Y115831D02*
X335021Y115831D01*
X328555Y103683D02*
X328555Y99217D01*
X328555Y103683D02*
X335021Y103683D01*
X335021Y99217D01*
X328555Y99217D01*
X328555Y102831D02*
X335021Y102831D01*
X340517Y198380D02*
X344983Y198380D01*
X340517Y198380D02*
X340517Y204846D01*
X344983Y204846D01*
X344983Y198380D01*
X344983Y201994D02*
X340517Y201994D01*
X353517Y198380D02*
X357983Y198380D01*
X353517Y198380D02*
X353517Y204846D01*
X357983Y204846D01*
X357983Y198380D01*
X357983Y201994D02*
X353517Y201994D01*
X283921Y227717D02*
X279455Y227717D01*
X279455Y242183D01*
X283921Y242183D01*
X283921Y227717D01*
X283921Y231331D02*
X279455Y231331D01*
X279455Y234945D02*
X283921Y234945D01*
X283921Y238559D02*
X279455Y238559D01*
X279455Y242173D02*
X283921Y242173D01*
X291455Y227717D02*
X295921Y227717D01*
X291455Y227717D02*
X291455Y242183D01*
X295921Y242183D01*
X295921Y227717D01*
X295921Y231331D02*
X291455Y231331D01*
X291455Y234945D02*
X295921Y234945D01*
X295921Y238559D02*
X291455Y238559D01*
X291455Y242173D02*
X295921Y242173D01*
X303455Y227717D02*
X307921Y227717D01*
X303455Y227717D02*
X303455Y242183D01*
X307921Y242183D01*
X307921Y227717D01*
X307921Y231331D02*
X303455Y231331D01*
X303455Y234945D02*
X307921Y234945D01*
X307921Y238559D02*
X303455Y238559D01*
X303455Y242173D02*
X307921Y242173D01*
D12*
X280988Y69850D03*
X239713Y69850D03*
D13*
X359690Y67615D02*
X359690Y64635D01*
X356710Y64635D01*
X356710Y67615D01*
X359690Y67615D01*
X367190Y67615D02*
X367190Y64635D01*
X364210Y64635D01*
X364210Y67615D01*
X367190Y67615D01*
X367190Y91135D02*
X367190Y94115D01*
X367190Y91135D02*
X364210Y91135D01*
X364210Y94115D01*
X367190Y94115D01*
X359690Y94115D02*
X359690Y91135D01*
X356710Y91135D01*
X356710Y94115D01*
X359690Y94115D01*
D14*
X366715Y217928D02*
X366715Y223398D01*
X372185Y223398D01*
X372185Y217928D01*
X366715Y217928D01*
X366715Y221539D02*
X372185Y221539D01*
X351715Y223398D02*
X351715Y217928D01*
X351715Y223398D02*
X357185Y223398D01*
X357185Y217928D01*
X351715Y217928D01*
X351715Y221539D02*
X357185Y221539D01*
D11*
X329108Y217430D02*
X324642Y217430D01*
X324642Y223896D01*
X329108Y223896D01*
X329108Y217430D01*
X329108Y221044D02*
X324642Y221044D01*
X337642Y217430D02*
X342108Y217430D01*
X337642Y217430D02*
X337642Y223896D01*
X342108Y223896D01*
X342108Y217430D01*
X342108Y221044D02*
X337642Y221044D01*
D14*
X366715Y233803D02*
X366715Y239273D01*
X372185Y239273D01*
X372185Y233803D01*
X366715Y233803D01*
X366715Y237414D02*
X372185Y237414D01*
X351715Y239273D02*
X351715Y233803D01*
X351715Y239273D02*
X357185Y239273D01*
X357185Y233803D01*
X351715Y233803D01*
X351715Y237414D02*
X357185Y237414D01*
D11*
X329108Y233305D02*
X324642Y233305D01*
X324642Y239771D01*
X329108Y239771D01*
X329108Y233305D01*
X329108Y236919D02*
X324642Y236919D01*
X337642Y233305D02*
X342108Y233305D01*
X337642Y233305D02*
X337642Y239771D01*
X342108Y239771D01*
X342108Y233305D01*
X342108Y236919D02*
X337642Y236919D01*
X206871Y236480D02*
X202405Y236480D01*
X202405Y242946D01*
X206871Y242946D01*
X206871Y236480D01*
X206871Y240094D02*
X202405Y240094D01*
X215405Y236480D02*
X219871Y236480D01*
X215405Y236480D02*
X215405Y242946D01*
X219871Y242946D01*
X219871Y236480D01*
X219871Y240094D02*
X215405Y240094D01*
D15*
X190576Y243489D02*
X182024Y243489D01*
X190576Y243489D02*
X190576Y235937D01*
X182024Y235937D01*
X182024Y243489D01*
X182024Y239470D02*
X190576Y239470D01*
X190576Y243003D02*
X182024Y243003D01*
X173576Y243489D02*
X165024Y243489D01*
X173576Y243489D02*
X173576Y235937D01*
X165024Y235937D01*
X165024Y243489D01*
X165024Y239470D02*
X173576Y239470D01*
X173576Y243003D02*
X165024Y243003D01*
D16*
X193615Y225698D02*
X193615Y213228D01*
X193615Y225698D02*
X200085Y225698D01*
X200085Y213228D01*
X193615Y213228D01*
X193615Y216838D02*
X200085Y216838D01*
X200085Y220448D02*
X193615Y220448D01*
X193615Y224058D02*
X200085Y224058D01*
X200085Y75698D02*
X200085Y63228D01*
X193615Y63228D01*
X193615Y75698D01*
X200085Y75698D01*
X200085Y66838D02*
X193615Y66838D01*
X193615Y70448D02*
X200085Y70448D01*
X200085Y74058D02*
X193615Y74058D01*
X111185Y75698D02*
X111185Y63228D01*
X104715Y63228D01*
X104715Y75698D01*
X111185Y75698D01*
X111185Y66838D02*
X104715Y66838D01*
X104715Y70448D02*
X111185Y70448D01*
X111185Y74058D02*
X104715Y74058D01*
X123885Y75698D02*
X123885Y63228D01*
X117415Y63228D01*
X117415Y75698D01*
X123885Y75698D01*
X123885Y66838D02*
X117415Y66838D01*
X117415Y70448D02*
X123885Y70448D01*
X123885Y74058D02*
X117415Y74058D01*
X136585Y75698D02*
X136585Y63228D01*
X130115Y63228D01*
X130115Y75698D01*
X136585Y75698D01*
X136585Y66838D02*
X130115Y66838D01*
X130115Y70448D02*
X136585Y70448D01*
X136585Y74058D02*
X130115Y74058D01*
X149285Y75698D02*
X149285Y63228D01*
X142815Y63228D01*
X142815Y75698D01*
X149285Y75698D01*
X149285Y66838D02*
X142815Y66838D01*
X142815Y70448D02*
X149285Y70448D01*
X149285Y74058D02*
X142815Y74058D01*
X161985Y75698D02*
X161985Y63228D01*
X155515Y63228D01*
X155515Y75698D01*
X161985Y75698D01*
X161985Y66838D02*
X155515Y66838D01*
X155515Y70448D02*
X161985Y70448D01*
X161985Y74058D02*
X155515Y74058D01*
X174685Y75698D02*
X174685Y63228D01*
X168215Y63228D01*
X168215Y75698D01*
X174685Y75698D01*
X174685Y66838D02*
X168215Y66838D01*
X168215Y70448D02*
X174685Y70448D01*
X174685Y74058D02*
X168215Y74058D01*
X187385Y75698D02*
X187385Y63228D01*
X180915Y63228D01*
X180915Y75698D01*
X187385Y75698D01*
X187385Y66838D02*
X180915Y66838D01*
X180915Y70448D02*
X187385Y70448D01*
X187385Y74058D02*
X180915Y74058D01*
X180915Y213228D02*
X180915Y225698D01*
X187385Y225698D01*
X187385Y213228D01*
X180915Y213228D01*
X180915Y216838D02*
X187385Y216838D01*
X187385Y220448D02*
X180915Y220448D01*
X180915Y224058D02*
X187385Y224058D01*
X168215Y225698D02*
X168215Y213228D01*
X168215Y225698D02*
X174685Y225698D01*
X174685Y213228D01*
X168215Y213228D01*
X168215Y216838D02*
X174685Y216838D01*
X174685Y220448D02*
X168215Y220448D01*
X168215Y224058D02*
X174685Y224058D01*
X155515Y225698D02*
X155515Y213228D01*
X155515Y225698D02*
X161985Y225698D01*
X161985Y213228D01*
X155515Y213228D01*
X155515Y216838D02*
X161985Y216838D01*
X161985Y220448D02*
X155515Y220448D01*
X155515Y224058D02*
X161985Y224058D01*
X142815Y225698D02*
X142815Y213228D01*
X142815Y225698D02*
X149285Y225698D01*
X149285Y213228D01*
X142815Y213228D01*
X142815Y216838D02*
X149285Y216838D01*
X149285Y220448D02*
X142815Y220448D01*
X142815Y224058D02*
X149285Y224058D01*
X130115Y225698D02*
X130115Y213228D01*
X130115Y225698D02*
X136585Y225698D01*
X136585Y213228D01*
X130115Y213228D01*
X130115Y216838D02*
X136585Y216838D01*
X136585Y220448D02*
X130115Y220448D01*
X130115Y224058D02*
X136585Y224058D01*
X117415Y225698D02*
X117415Y213228D01*
X117415Y225698D02*
X123885Y225698D01*
X123885Y213228D01*
X117415Y213228D01*
X117415Y216838D02*
X123885Y216838D01*
X123885Y220448D02*
X117415Y220448D01*
X117415Y224058D02*
X123885Y224058D01*
X104715Y225698D02*
X104715Y213228D01*
X104715Y225698D02*
X111185Y225698D01*
X111185Y213228D01*
X104715Y213228D01*
X104715Y216838D02*
X111185Y216838D01*
X111185Y220448D02*
X104715Y220448D01*
X104715Y224058D02*
X111185Y224058D01*
D12*
X260350Y69850D03*
D17*
X412750Y209550D03*
X412750Y234950D03*
X412750Y184150D03*
X412750Y158750D03*
X412750Y95250D03*
X412750Y120650D03*
X412750Y69850D03*
D18*
X327025Y68263D03*
X314325Y68263D03*
X301625Y68263D03*
X339725Y68263D03*
D11*
X265908Y239771D02*
X261442Y239771D01*
X265908Y239771D02*
X265908Y233305D01*
X261442Y233305D01*
X261442Y239771D01*
X261442Y236919D02*
X265908Y236919D01*
X252908Y239771D02*
X248442Y239771D01*
X252908Y239771D02*
X252908Y233305D01*
X248442Y233305D01*
X248442Y239771D01*
X248442Y236919D02*
X252908Y236919D01*
D19*
X371475Y166688D03*
X371475Y144463D03*
M02*
