G04 EAGLE Gerber RS-274X export*
G75*
%MOMM*%
%FSLAX34Y34*%
%LPD*%
%INSilkscreen Top*%
%IPPOS*%
%AMOC8*
5,1,8,0,0,1.08239X$1,22.5*%
G01*
%ADD10C,0.203200*%
%ADD11C,0.152400*%
%ADD12C,0.254000*%
%ADD13C,0.127000*%
%ADD14C,0.330200*%
%ADD15C,0.304800*%
%ADD16C,0.076200*%
%ADD17R,0.250000X0.250000*%
%ADD18C,0.050800*%


D10*
X382784Y189493D02*
X375666Y189493D01*
X375666Y184155D01*
X379225Y185934D01*
X381005Y185934D01*
X382784Y184155D01*
X382784Y180596D01*
X381005Y178816D01*
X377446Y178816D01*
X375666Y180596D01*
X387360Y182375D02*
X387360Y189493D01*
X387360Y182375D02*
X390919Y178816D01*
X394478Y182375D01*
X394478Y189493D01*
D11*
X325759Y87193D02*
X327199Y85752D01*
X325759Y87193D02*
X322878Y87193D01*
X321437Y85752D01*
X321437Y84312D01*
X322878Y82871D01*
X325759Y82871D01*
X327199Y81431D01*
X327199Y79990D01*
X325759Y78550D01*
X322878Y78550D01*
X321437Y79990D01*
X330792Y78550D02*
X330792Y87193D01*
X333673Y81431D02*
X330792Y78550D01*
X333673Y81431D02*
X336554Y78550D01*
X336554Y87193D01*
X340147Y87193D02*
X340147Y78550D01*
X344469Y78550D01*
X345910Y79990D01*
X345910Y85752D01*
X344469Y87193D01*
X340147Y87193D01*
D10*
X375666Y89916D02*
X375666Y100593D01*
X381005Y100593D01*
X382784Y98814D01*
X382784Y95255D01*
X381005Y93475D01*
X375666Y93475D01*
X379225Y93475D02*
X382784Y89916D01*
X387360Y97034D02*
X394478Y89916D01*
X387360Y89916D02*
X394478Y97034D01*
X383988Y229616D02*
X380429Y229616D01*
X382208Y229616D02*
X382208Y240293D01*
X380429Y240293D02*
X383988Y240293D01*
X388224Y240293D02*
X388224Y229616D01*
X395343Y229616D02*
X388224Y240293D01*
X395343Y240293D02*
X395343Y229616D01*
D12*
X392563Y77419D02*
X394936Y75046D01*
X392563Y77419D02*
X387818Y77419D01*
X385445Y75046D01*
X385445Y65555D01*
X387818Y63183D01*
X392563Y63183D01*
X394936Y65555D01*
X394936Y70301D01*
X390190Y70301D01*
X394936Y163946D02*
X392563Y166319D01*
X387818Y166319D01*
X385445Y163946D01*
X385445Y154455D01*
X387818Y152083D01*
X392563Y152083D01*
X394936Y154455D01*
X394936Y159201D01*
X390190Y159201D01*
D10*
X379225Y125993D02*
X379225Y115316D01*
X375666Y125993D02*
X382784Y125993D01*
X387360Y122434D02*
X394478Y115316D01*
X387360Y115316D02*
X394478Y122434D01*
D13*
X228348Y86874D02*
X228348Y80010D01*
X226060Y86874D02*
X230636Y86874D01*
X233544Y84586D02*
X238120Y80010D01*
X233544Y80010D02*
X238120Y84586D01*
X241028Y84586D02*
X243316Y86874D01*
X243316Y80010D01*
X241028Y80010D02*
X245604Y80010D01*
D11*
X363538Y236538D02*
X363538Y239713D01*
X363538Y236538D02*
X363538Y233363D01*
X363538Y236538D02*
X360363Y239713D01*
X363538Y236538D02*
X360363Y233363D01*
X360363Y239713D01*
X363538Y223838D02*
X363538Y220663D01*
X363538Y217488D01*
X363538Y220663D02*
X360363Y223838D01*
X363538Y220663D02*
X360363Y217488D01*
X360363Y223838D01*
D14*
X357124Y105716D02*
X348142Y105716D01*
X348142Y107962D01*
X350387Y110208D01*
X357124Y110208D01*
X350387Y110208D02*
X348142Y112453D01*
X350387Y114699D01*
X357124Y114699D01*
X357124Y121152D02*
X343651Y121152D01*
X357124Y121152D02*
X357124Y130135D01*
X357124Y136589D02*
X343651Y136589D01*
X343651Y143325D01*
X345896Y145571D01*
X350387Y145571D01*
X352633Y143325D01*
X352633Y136589D01*
X352633Y141080D02*
X357124Y145571D01*
X343651Y158761D02*
X345896Y161007D01*
X343651Y158761D02*
X343651Y154270D01*
X345896Y152025D01*
X348142Y152025D01*
X350387Y154270D01*
X350387Y158761D01*
X352633Y161007D01*
X354878Y161007D01*
X357124Y158761D01*
X357124Y154270D01*
X354878Y152025D01*
D13*
X59109Y238570D02*
X56821Y243145D01*
X61397Y243145D02*
X59109Y238570D01*
X64305Y239713D02*
X64305Y244289D01*
X65449Y245433D01*
X67737Y245433D01*
X68881Y244289D01*
X68881Y239713D01*
X67737Y238570D01*
X65449Y238570D01*
X64305Y239713D01*
X68881Y244289D01*
X71789Y239713D02*
X71789Y238570D01*
X71789Y239713D02*
X72933Y239713D01*
X72933Y238570D01*
X71789Y238570D01*
X75531Y243145D02*
X77819Y245433D01*
X77819Y238570D01*
X75531Y238570D02*
X80107Y238570D01*
X83015Y243145D02*
X85303Y245433D01*
X85303Y238570D01*
X83015Y238570D02*
X87591Y238570D01*
X55573Y230953D02*
X55573Y226378D01*
X55573Y228665D02*
X57861Y230953D01*
X59005Y230953D01*
X62954Y226378D02*
X65242Y226378D01*
X62954Y226378D02*
X61810Y227521D01*
X61810Y229809D01*
X62954Y230953D01*
X65242Y230953D01*
X66386Y229809D01*
X66386Y228665D01*
X61810Y228665D01*
X69294Y230953D02*
X71582Y226378D01*
X73870Y230953D01*
X76778Y232097D02*
X76778Y227521D01*
X76778Y232097D02*
X77922Y233241D01*
X80210Y233241D01*
X81354Y232097D01*
X81354Y227521D01*
X80210Y226378D01*
X77922Y226378D01*
X76778Y227521D01*
X81354Y232097D01*
X84263Y232097D02*
X84263Y227521D01*
X84263Y232097D02*
X85407Y233241D01*
X87694Y233241D01*
X88838Y232097D01*
X88838Y227521D01*
X87694Y226378D01*
X85407Y226378D01*
X84263Y227521D01*
X88838Y232097D01*
D10*
X367921Y210131D02*
X371480Y210131D01*
X367921Y210131D02*
X366141Y208351D01*
X366141Y201233D01*
X367921Y199454D01*
X371480Y199454D01*
X373259Y201233D01*
X373259Y208351D01*
X371480Y210131D01*
X377835Y210131D02*
X377835Y201233D01*
X379614Y199454D01*
X383174Y199454D01*
X384953Y201233D01*
X384953Y210131D01*
X393088Y210131D02*
X393088Y199454D01*
X389529Y210131D02*
X396647Y210131D01*
D11*
X406400Y146050D02*
X419100Y146050D01*
X425450Y152400D02*
X425450Y222250D01*
X425450Y241300D01*
X419100Y247650D02*
X406400Y247650D01*
X400050Y222250D02*
X400050Y152400D01*
X400050Y222250D02*
X400050Y241300D01*
X400050Y152400D02*
X406400Y146050D01*
X419100Y146050D02*
X425450Y152400D01*
X425450Y241300D02*
X419100Y247650D01*
X406400Y247650D02*
X400050Y241300D01*
D13*
X251460Y86874D02*
X251460Y80010D01*
X251460Y86874D02*
X254892Y86874D01*
X256036Y85730D01*
X256036Y83442D01*
X254892Y82298D01*
X251460Y82298D01*
X253748Y82298D02*
X256036Y80010D01*
X258944Y84586D02*
X263520Y80010D01*
X258944Y80010D02*
X263520Y84586D01*
X266428Y84586D02*
X268716Y86874D01*
X268716Y80010D01*
X266428Y80010D02*
X271004Y80010D01*
X280292Y86874D02*
X281436Y85730D01*
X280292Y86874D02*
X278004Y86874D01*
X276860Y85730D01*
X276860Y81154D01*
X278004Y80010D01*
X280292Y80010D01*
X281436Y81154D01*
X281436Y83442D01*
X279148Y83442D01*
X284344Y84586D02*
X284344Y80010D01*
X284344Y84586D02*
X287776Y84586D01*
X288920Y83442D01*
X288920Y80010D01*
X296404Y80010D02*
X296404Y86874D01*
X296404Y80010D02*
X292972Y80010D01*
X291828Y81154D01*
X291828Y83442D01*
X292972Y84586D01*
X296404Y84586D01*
D11*
X319881Y244475D02*
X346869Y244475D01*
X319881Y244475D02*
X319881Y228600D01*
X346869Y228600D01*
X346869Y212725D02*
X319881Y212725D01*
X319881Y228600D01*
X346869Y228600D02*
X377031Y228600D01*
X346869Y228600D02*
X346869Y244475D01*
X346869Y228600D02*
X346869Y212725D01*
X377031Y228600D02*
X377031Y244475D01*
X377031Y228600D02*
X377031Y212725D01*
X377031Y244475D02*
X346869Y244475D01*
X346869Y212725D02*
X377031Y212725D01*
X195263Y230981D02*
X160338Y230981D01*
X160338Y248444D02*
X195263Y248444D01*
X195263Y230981D01*
X160338Y230981D02*
X160338Y248444D01*
X362744Y209550D02*
X362744Y193675D01*
X335756Y193675D01*
X335756Y209550D02*
X362744Y209550D01*
X335756Y209550D02*
X335756Y193675D01*
X224631Y231775D02*
X224631Y247650D01*
X224631Y231775D02*
X197644Y231775D01*
X197644Y247650D02*
X224631Y247650D01*
X197644Y247650D02*
X197644Y231775D01*
X400050Y222250D02*
X425450Y222250D01*
D10*
X150232Y117515D02*
X150232Y110397D01*
X160909Y110397D01*
X160909Y117515D01*
X155570Y113956D02*
X155570Y110397D01*
X160909Y122091D02*
X160909Y129209D01*
X160909Y122091D02*
X153791Y129209D01*
X152011Y129209D01*
X150232Y127429D01*
X150232Y123870D01*
X152011Y122091D01*
X152011Y133784D02*
X150232Y135564D01*
X150232Y139123D01*
X152011Y140903D01*
X153791Y140903D01*
X155570Y139123D01*
X157350Y140903D01*
X159130Y140903D01*
X160909Y139123D01*
X160909Y135564D01*
X159130Y133784D01*
X157350Y133784D01*
X155570Y135564D01*
X153791Y133784D01*
X152011Y133784D01*
X155570Y135564D02*
X155570Y139123D01*
X150232Y158952D02*
X160909Y158952D01*
X160909Y162511D02*
X150232Y162511D01*
X153791Y162511D02*
X153791Y157172D01*
X153791Y162511D02*
X153791Y164290D01*
X157350Y164290D02*
X157350Y157172D01*
X153791Y168866D02*
X150232Y172425D01*
X160909Y172425D01*
X160909Y168866D02*
X160909Y175984D01*
D11*
X339725Y121444D02*
X339725Y94456D01*
X323850Y94456D02*
X323850Y121444D01*
X339725Y121444D01*
X339725Y94456D02*
X323850Y94456D01*
X270669Y244475D02*
X243681Y244475D01*
X243681Y228600D02*
X270669Y228600D01*
X270669Y244475D01*
X243681Y244475D02*
X243681Y228600D01*
D15*
X321310Y200025D02*
X321312Y200125D01*
X321318Y200226D01*
X321328Y200325D01*
X321342Y200425D01*
X321359Y200524D01*
X321381Y200622D01*
X321407Y200719D01*
X321436Y200815D01*
X321469Y200909D01*
X321506Y201003D01*
X321546Y201095D01*
X321590Y201185D01*
X321638Y201273D01*
X321689Y201360D01*
X321743Y201444D01*
X321801Y201526D01*
X321862Y201606D01*
X321926Y201683D01*
X321993Y201758D01*
X322063Y201830D01*
X322136Y201899D01*
X322211Y201965D01*
X322289Y202029D01*
X322369Y202089D01*
X322452Y202146D01*
X322537Y202199D01*
X322624Y202249D01*
X322713Y202296D01*
X322803Y202339D01*
X322895Y202379D01*
X322989Y202415D01*
X323084Y202447D01*
X323180Y202475D01*
X323278Y202500D01*
X323376Y202520D01*
X323475Y202537D01*
X323575Y202550D01*
X323674Y202559D01*
X323775Y202564D01*
X323875Y202565D01*
X323975Y202562D01*
X324076Y202555D01*
X324175Y202544D01*
X324275Y202529D01*
X324373Y202511D01*
X324471Y202488D01*
X324568Y202461D01*
X324663Y202431D01*
X324758Y202397D01*
X324851Y202359D01*
X324942Y202318D01*
X325032Y202273D01*
X325120Y202225D01*
X325206Y202173D01*
X325290Y202118D01*
X325371Y202059D01*
X325450Y201997D01*
X325527Y201933D01*
X325601Y201865D01*
X325672Y201794D01*
X325741Y201721D01*
X325806Y201645D01*
X325869Y201566D01*
X325928Y201485D01*
X325984Y201402D01*
X326037Y201317D01*
X326086Y201229D01*
X326132Y201140D01*
X326174Y201049D01*
X326213Y200956D01*
X326248Y200862D01*
X326279Y200767D01*
X326307Y200670D01*
X326330Y200573D01*
X326350Y200474D01*
X326366Y200375D01*
X326378Y200276D01*
X326386Y200175D01*
X326390Y200075D01*
X326390Y199975D01*
X326386Y199875D01*
X326378Y199774D01*
X326366Y199675D01*
X326350Y199576D01*
X326330Y199477D01*
X326307Y199380D01*
X326279Y199283D01*
X326248Y199188D01*
X326213Y199094D01*
X326174Y199001D01*
X326132Y198910D01*
X326086Y198821D01*
X326037Y198733D01*
X325984Y198648D01*
X325928Y198565D01*
X325869Y198484D01*
X325806Y198405D01*
X325741Y198329D01*
X325672Y198256D01*
X325601Y198185D01*
X325527Y198117D01*
X325450Y198053D01*
X325371Y197991D01*
X325290Y197932D01*
X325206Y197877D01*
X325120Y197825D01*
X325032Y197777D01*
X324942Y197732D01*
X324851Y197691D01*
X324758Y197653D01*
X324663Y197619D01*
X324568Y197589D01*
X324471Y197562D01*
X324373Y197539D01*
X324275Y197521D01*
X324175Y197506D01*
X324076Y197495D01*
X323975Y197488D01*
X323875Y197485D01*
X323775Y197486D01*
X323674Y197491D01*
X323575Y197500D01*
X323475Y197513D01*
X323376Y197530D01*
X323278Y197550D01*
X323180Y197575D01*
X323084Y197603D01*
X322989Y197635D01*
X322895Y197671D01*
X322803Y197711D01*
X322713Y197754D01*
X322624Y197801D01*
X322537Y197851D01*
X322452Y197904D01*
X322369Y197961D01*
X322289Y198021D01*
X322211Y198085D01*
X322136Y198151D01*
X322063Y198220D01*
X321993Y198292D01*
X321926Y198367D01*
X321862Y198444D01*
X321801Y198524D01*
X321743Y198606D01*
X321689Y198690D01*
X321638Y198777D01*
X321590Y198865D01*
X321546Y198955D01*
X321506Y199047D01*
X321469Y199141D01*
X321436Y199235D01*
X321407Y199331D01*
X321381Y199428D01*
X321359Y199526D01*
X321342Y199625D01*
X321328Y199725D01*
X321318Y199824D01*
X321312Y199925D01*
X321310Y200025D01*
D13*
X341948Y176791D02*
X347201Y176791D01*
X341948Y176791D02*
X341948Y168910D01*
X347201Y168910D01*
X344574Y172850D02*
X341948Y172850D01*
X350367Y174164D02*
X355621Y168910D01*
X350367Y168910D02*
X355621Y174164D01*
X360100Y175477D02*
X360100Y170223D01*
X361414Y168910D01*
X361414Y174164D02*
X358787Y174164D01*
D12*
X319500Y130925D02*
X316750Y128175D01*
X254750Y128175D01*
X252000Y130925D01*
X252000Y192925D01*
X254750Y195675D01*
X316750Y195675D01*
X319500Y192925D01*
X319500Y130925D01*
X299750Y181925D02*
X299752Y182079D01*
X299758Y182234D01*
X299768Y182388D01*
X299782Y182542D01*
X299800Y182695D01*
X299821Y182848D01*
X299847Y183001D01*
X299877Y183152D01*
X299910Y183303D01*
X299948Y183453D01*
X299989Y183602D01*
X300034Y183750D01*
X300083Y183896D01*
X300136Y184042D01*
X300192Y184185D01*
X300252Y184328D01*
X300316Y184468D01*
X300383Y184608D01*
X300454Y184745D01*
X300528Y184880D01*
X300606Y185014D01*
X300687Y185145D01*
X300772Y185274D01*
X300860Y185402D01*
X300951Y185526D01*
X301045Y185649D01*
X301143Y185769D01*
X301243Y185886D01*
X301347Y186001D01*
X301453Y186113D01*
X301562Y186222D01*
X301674Y186328D01*
X301789Y186432D01*
X301906Y186532D01*
X302026Y186630D01*
X302149Y186724D01*
X302273Y186815D01*
X302401Y186903D01*
X302530Y186988D01*
X302661Y187069D01*
X302795Y187147D01*
X302930Y187221D01*
X303067Y187292D01*
X303207Y187359D01*
X303347Y187423D01*
X303490Y187483D01*
X303633Y187539D01*
X303779Y187592D01*
X303925Y187641D01*
X304073Y187686D01*
X304222Y187727D01*
X304372Y187765D01*
X304523Y187798D01*
X304674Y187828D01*
X304827Y187854D01*
X304980Y187875D01*
X305133Y187893D01*
X305287Y187907D01*
X305441Y187917D01*
X305596Y187923D01*
X305750Y187925D01*
X305904Y187923D01*
X306059Y187917D01*
X306213Y187907D01*
X306367Y187893D01*
X306520Y187875D01*
X306673Y187854D01*
X306826Y187828D01*
X306977Y187798D01*
X307128Y187765D01*
X307278Y187727D01*
X307427Y187686D01*
X307575Y187641D01*
X307721Y187592D01*
X307867Y187539D01*
X308010Y187483D01*
X308153Y187423D01*
X308293Y187359D01*
X308433Y187292D01*
X308570Y187221D01*
X308705Y187147D01*
X308839Y187069D01*
X308970Y186988D01*
X309099Y186903D01*
X309227Y186815D01*
X309351Y186724D01*
X309474Y186630D01*
X309594Y186532D01*
X309711Y186432D01*
X309826Y186328D01*
X309938Y186222D01*
X310047Y186113D01*
X310153Y186001D01*
X310257Y185886D01*
X310357Y185769D01*
X310455Y185649D01*
X310549Y185526D01*
X310640Y185402D01*
X310728Y185274D01*
X310813Y185145D01*
X310894Y185014D01*
X310972Y184880D01*
X311046Y184745D01*
X311117Y184608D01*
X311184Y184468D01*
X311248Y184328D01*
X311308Y184185D01*
X311364Y184042D01*
X311417Y183896D01*
X311466Y183750D01*
X311511Y183602D01*
X311552Y183453D01*
X311590Y183303D01*
X311623Y183152D01*
X311653Y183001D01*
X311679Y182848D01*
X311700Y182695D01*
X311718Y182542D01*
X311732Y182388D01*
X311742Y182234D01*
X311748Y182079D01*
X311750Y181925D01*
X311748Y181771D01*
X311742Y181616D01*
X311732Y181462D01*
X311718Y181308D01*
X311700Y181155D01*
X311679Y181002D01*
X311653Y180849D01*
X311623Y180698D01*
X311590Y180547D01*
X311552Y180397D01*
X311511Y180248D01*
X311466Y180100D01*
X311417Y179954D01*
X311364Y179808D01*
X311308Y179665D01*
X311248Y179522D01*
X311184Y179382D01*
X311117Y179242D01*
X311046Y179105D01*
X310972Y178970D01*
X310894Y178836D01*
X310813Y178705D01*
X310728Y178576D01*
X310640Y178448D01*
X310549Y178324D01*
X310455Y178201D01*
X310357Y178081D01*
X310257Y177964D01*
X310153Y177849D01*
X310047Y177737D01*
X309938Y177628D01*
X309826Y177522D01*
X309711Y177418D01*
X309594Y177318D01*
X309474Y177220D01*
X309351Y177126D01*
X309227Y177035D01*
X309099Y176947D01*
X308970Y176862D01*
X308839Y176781D01*
X308705Y176703D01*
X308570Y176629D01*
X308433Y176558D01*
X308293Y176491D01*
X308153Y176427D01*
X308010Y176367D01*
X307867Y176311D01*
X307721Y176258D01*
X307575Y176209D01*
X307427Y176164D01*
X307278Y176123D01*
X307128Y176085D01*
X306977Y176052D01*
X306826Y176022D01*
X306673Y175996D01*
X306520Y175975D01*
X306367Y175957D01*
X306213Y175943D01*
X306059Y175933D01*
X305904Y175927D01*
X305750Y175925D01*
X305596Y175927D01*
X305441Y175933D01*
X305287Y175943D01*
X305133Y175957D01*
X304980Y175975D01*
X304827Y175996D01*
X304674Y176022D01*
X304523Y176052D01*
X304372Y176085D01*
X304222Y176123D01*
X304073Y176164D01*
X303925Y176209D01*
X303779Y176258D01*
X303633Y176311D01*
X303490Y176367D01*
X303347Y176427D01*
X303207Y176491D01*
X303067Y176558D01*
X302930Y176629D01*
X302795Y176703D01*
X302661Y176781D01*
X302530Y176862D01*
X302401Y176947D01*
X302273Y177035D01*
X302149Y177126D01*
X302026Y177220D01*
X301906Y177318D01*
X301789Y177418D01*
X301674Y177522D01*
X301562Y177628D01*
X301453Y177737D01*
X301347Y177849D01*
X301243Y177964D01*
X301143Y178081D01*
X301045Y178201D01*
X300951Y178324D01*
X300860Y178448D01*
X300772Y178576D01*
X300687Y178705D01*
X300606Y178836D01*
X300528Y178970D01*
X300454Y179105D01*
X300383Y179242D01*
X300316Y179382D01*
X300252Y179522D01*
X300192Y179665D01*
X300136Y179808D01*
X300083Y179954D01*
X300034Y180100D01*
X299989Y180248D01*
X299948Y180397D01*
X299910Y180547D01*
X299877Y180698D01*
X299847Y180849D01*
X299821Y181002D01*
X299800Y181155D01*
X299782Y181308D01*
X299768Y181462D01*
X299758Y181616D01*
X299752Y181771D01*
X299750Y181925D01*
D16*
X231438Y197231D02*
X228981Y197231D01*
X230210Y197231D02*
X230210Y204603D01*
X231438Y204603D02*
X228981Y204603D01*
X237657Y204603D02*
X238885Y203375D01*
X237657Y204603D02*
X235199Y204603D01*
X233970Y203375D01*
X233970Y198460D01*
X235199Y197231D01*
X237657Y197231D01*
X238885Y198460D01*
X241455Y202146D02*
X243912Y204603D01*
X243912Y197231D01*
X241455Y197231D02*
X246369Y197231D01*
X302947Y105396D02*
X304176Y104168D01*
X302947Y105396D02*
X300490Y105396D01*
X299261Y104168D01*
X299261Y99253D01*
X300490Y98024D01*
X302947Y98024D01*
X304176Y99253D01*
X306745Y102939D02*
X309203Y105396D01*
X309203Y98024D01*
X311660Y98024D02*
X306745Y98024D01*
X314229Y102939D02*
X316687Y105396D01*
X316687Y98024D01*
X319144Y98024D02*
X314229Y98024D01*
X347515Y188897D02*
X346286Y190125D01*
X343829Y190125D01*
X342600Y188897D01*
X342600Y183982D01*
X343829Y182753D01*
X346286Y182753D01*
X347515Y183982D01*
X350084Y183982D02*
X351313Y182753D01*
X353770Y182753D01*
X354999Y183982D01*
X354999Y188897D01*
X353770Y190125D01*
X351313Y190125D01*
X350084Y188897D01*
X350084Y187668D01*
X351313Y186439D01*
X354999Y186439D01*
D10*
X311688Y228450D02*
X311688Y241450D01*
X275688Y241450D02*
X275688Y228450D01*
D16*
X283863Y222234D02*
X283863Y217319D01*
X283863Y222234D02*
X285091Y223463D01*
X287549Y223463D01*
X288778Y222234D01*
X288778Y217319D01*
X287549Y216091D01*
X285091Y216091D01*
X283863Y217319D01*
X286320Y218548D02*
X288778Y216091D01*
X291347Y221005D02*
X293804Y223463D01*
X293804Y216091D01*
X291347Y216091D02*
X296262Y216091D01*
D13*
X353950Y88375D02*
X353950Y70375D01*
X369950Y70375D02*
X369950Y88375D01*
X355867Y79375D02*
X355869Y79530D01*
X355875Y79686D01*
X355885Y79841D01*
X355899Y79995D01*
X355917Y80150D01*
X355938Y80304D01*
X355964Y80457D01*
X355994Y80609D01*
X356027Y80761D01*
X356064Y80912D01*
X356106Y81062D01*
X356150Y81210D01*
X356199Y81358D01*
X356252Y81504D01*
X356308Y81649D01*
X356368Y81792D01*
X356431Y81934D01*
X356499Y82074D01*
X356569Y82212D01*
X356644Y82349D01*
X356721Y82484D01*
X356802Y82616D01*
X356887Y82746D01*
X356975Y82875D01*
X357066Y83001D01*
X357160Y83124D01*
X357257Y83245D01*
X357357Y83364D01*
X357461Y83480D01*
X357567Y83593D01*
X357676Y83704D01*
X357788Y83811D01*
X357903Y83916D01*
X358020Y84018D01*
X358140Y84117D01*
X358262Y84213D01*
X358387Y84305D01*
X358514Y84395D01*
X358643Y84481D01*
X358775Y84564D01*
X358908Y84643D01*
X359044Y84719D01*
X359181Y84791D01*
X359321Y84860D01*
X359462Y84926D01*
X359604Y84987D01*
X359748Y85046D01*
X359894Y85100D01*
X360041Y85151D01*
X360189Y85197D01*
X360338Y85241D01*
X360488Y85280D01*
X360640Y85315D01*
X360792Y85347D01*
X360945Y85374D01*
X361098Y85398D01*
X361252Y85418D01*
X361407Y85434D01*
X361562Y85446D01*
X361717Y85454D01*
X361872Y85458D01*
X362028Y85458D01*
X362183Y85454D01*
X362338Y85446D01*
X362493Y85434D01*
X362648Y85418D01*
X362802Y85398D01*
X362955Y85374D01*
X363108Y85347D01*
X363260Y85315D01*
X363412Y85280D01*
X363562Y85241D01*
X363711Y85197D01*
X363859Y85151D01*
X364006Y85100D01*
X364152Y85046D01*
X364296Y84987D01*
X364438Y84926D01*
X364579Y84860D01*
X364719Y84791D01*
X364856Y84719D01*
X364991Y84643D01*
X365125Y84564D01*
X365257Y84481D01*
X365386Y84395D01*
X365513Y84305D01*
X365638Y84213D01*
X365760Y84117D01*
X365880Y84018D01*
X365997Y83916D01*
X366112Y83811D01*
X366224Y83704D01*
X366333Y83593D01*
X366439Y83480D01*
X366543Y83364D01*
X366643Y83245D01*
X366740Y83124D01*
X366834Y83001D01*
X366925Y82875D01*
X367013Y82746D01*
X367098Y82616D01*
X367179Y82484D01*
X367256Y82349D01*
X367331Y82212D01*
X367401Y82074D01*
X367469Y81934D01*
X367532Y81792D01*
X367592Y81649D01*
X367648Y81504D01*
X367701Y81358D01*
X367750Y81210D01*
X367794Y81062D01*
X367836Y80912D01*
X367873Y80761D01*
X367906Y80609D01*
X367936Y80457D01*
X367962Y80304D01*
X367983Y80150D01*
X368001Y79995D01*
X368015Y79841D01*
X368025Y79686D01*
X368031Y79530D01*
X368033Y79375D01*
X368031Y79220D01*
X368025Y79064D01*
X368015Y78909D01*
X368001Y78755D01*
X367983Y78600D01*
X367962Y78446D01*
X367936Y78293D01*
X367906Y78141D01*
X367873Y77989D01*
X367836Y77838D01*
X367794Y77688D01*
X367750Y77540D01*
X367701Y77392D01*
X367648Y77246D01*
X367592Y77101D01*
X367532Y76958D01*
X367469Y76816D01*
X367401Y76676D01*
X367331Y76538D01*
X367256Y76401D01*
X367179Y76266D01*
X367098Y76134D01*
X367013Y76004D01*
X366925Y75875D01*
X366834Y75749D01*
X366740Y75626D01*
X366643Y75505D01*
X366543Y75386D01*
X366439Y75270D01*
X366333Y75157D01*
X366224Y75046D01*
X366112Y74939D01*
X365997Y74834D01*
X365880Y74732D01*
X365760Y74633D01*
X365638Y74537D01*
X365513Y74445D01*
X365386Y74355D01*
X365257Y74269D01*
X365125Y74186D01*
X364992Y74107D01*
X364856Y74031D01*
X364719Y73959D01*
X364579Y73890D01*
X364438Y73824D01*
X364296Y73763D01*
X364152Y73704D01*
X364006Y73650D01*
X363859Y73599D01*
X363711Y73553D01*
X363562Y73509D01*
X363412Y73470D01*
X363260Y73435D01*
X363108Y73403D01*
X362955Y73376D01*
X362802Y73352D01*
X362648Y73332D01*
X362493Y73316D01*
X362338Y73304D01*
X362183Y73296D01*
X362028Y73292D01*
X361872Y73292D01*
X361717Y73296D01*
X361562Y73304D01*
X361407Y73316D01*
X361252Y73332D01*
X361098Y73352D01*
X360945Y73376D01*
X360792Y73403D01*
X360640Y73435D01*
X360488Y73470D01*
X360338Y73509D01*
X360189Y73553D01*
X360041Y73599D01*
X359894Y73650D01*
X359748Y73704D01*
X359604Y73763D01*
X359462Y73824D01*
X359321Y73890D01*
X359181Y73959D01*
X359044Y74031D01*
X358909Y74107D01*
X358775Y74186D01*
X358643Y74269D01*
X358514Y74355D01*
X358387Y74445D01*
X358262Y74537D01*
X358140Y74633D01*
X358020Y74732D01*
X357903Y74834D01*
X357788Y74939D01*
X357676Y75046D01*
X357567Y75157D01*
X357461Y75270D01*
X357357Y75386D01*
X357257Y75505D01*
X357160Y75626D01*
X357066Y75749D01*
X356975Y75875D01*
X356887Y76004D01*
X356802Y76134D01*
X356721Y76266D01*
X356644Y76401D01*
X356569Y76538D01*
X356499Y76676D01*
X356431Y76816D01*
X356368Y76958D01*
X356308Y77101D01*
X356252Y77246D01*
X356199Y77392D01*
X356150Y77540D01*
X356106Y77688D01*
X356064Y77838D01*
X356027Y77989D01*
X355994Y78141D01*
X355964Y78293D01*
X355938Y78446D01*
X355917Y78600D01*
X355899Y78755D01*
X355885Y78909D01*
X355875Y79064D01*
X355869Y79220D01*
X355867Y79375D01*
D17*
X363200Y220663D03*
D16*
X304500Y223463D02*
X304500Y216091D01*
X304500Y223463D02*
X308186Y223463D01*
X309415Y222234D01*
X309415Y219777D01*
X308186Y218548D01*
X304500Y218548D01*
X306958Y218548D02*
X309415Y216091D01*
X311984Y221005D02*
X314442Y223463D01*
X314442Y216091D01*
X316899Y216091D02*
X311984Y216091D01*
D17*
X363200Y236538D03*
D18*
X318834Y239967D02*
X313241Y239967D01*
X313241Y242763D01*
X314173Y243695D01*
X316037Y243695D01*
X316969Y242763D01*
X316969Y239967D01*
X316969Y241831D02*
X318834Y243695D01*
X318834Y245580D02*
X318834Y249308D01*
X318834Y245580D02*
X315105Y249308D01*
X314173Y249308D01*
X313241Y248376D01*
X313241Y246512D01*
X314173Y245580D01*
D16*
X232308Y238300D02*
X231080Y239528D01*
X228622Y239528D01*
X227394Y238300D01*
X227394Y233385D01*
X228622Y232156D01*
X231080Y232156D01*
X232308Y233385D01*
X234878Y239528D02*
X239793Y239528D01*
X239793Y238300D01*
X234878Y233385D01*
X234878Y232156D01*
X147490Y242872D02*
X146261Y244100D01*
X143804Y244100D01*
X142575Y242872D01*
X142575Y237957D01*
X143804Y236728D01*
X146261Y236728D01*
X147490Y237957D01*
X152517Y242872D02*
X154974Y244100D01*
X152517Y242872D02*
X150059Y240414D01*
X150059Y237957D01*
X151288Y236728D01*
X153745Y236728D01*
X154974Y237957D01*
X154974Y239185D01*
X153745Y240414D01*
X150059Y240414D01*
D10*
X100550Y69463D02*
X23850Y69463D01*
X-41150Y69463D01*
X-41150Y219463D01*
X23850Y219463D01*
X100550Y219463D01*
X23850Y219463D02*
X23850Y69463D01*
X203850Y69463D02*
X223850Y69463D01*
X223850Y219463D02*
X203850Y219463D01*
X223850Y219463D02*
X223850Y69463D01*
D13*
X34850Y94463D02*
X34854Y94757D01*
X34864Y95052D01*
X34883Y95346D01*
X34908Y95639D01*
X34940Y95932D01*
X34980Y96224D01*
X35027Y96515D01*
X35081Y96804D01*
X35142Y97092D01*
X35210Y97379D01*
X35285Y97664D01*
X35367Y97946D01*
X35456Y98227D01*
X35551Y98506D01*
X35654Y98782D01*
X35763Y99055D01*
X35879Y99326D01*
X36002Y99594D01*
X36131Y99858D01*
X36267Y100120D01*
X36409Y100378D01*
X36557Y100632D01*
X36712Y100883D01*
X36872Y101130D01*
X37039Y101373D01*
X37212Y101611D01*
X37390Y101846D01*
X37574Y102076D01*
X37763Y102301D01*
X37959Y102522D01*
X38159Y102737D01*
X38365Y102948D01*
X38576Y103154D01*
X38791Y103354D01*
X39012Y103550D01*
X39237Y103739D01*
X39467Y103923D01*
X39702Y104101D01*
X39940Y104274D01*
X40183Y104441D01*
X40430Y104601D01*
X40681Y104756D01*
X40935Y104904D01*
X41193Y105046D01*
X41455Y105182D01*
X41719Y105311D01*
X41987Y105434D01*
X42258Y105550D01*
X42531Y105659D01*
X42807Y105762D01*
X43086Y105857D01*
X43367Y105946D01*
X43649Y106028D01*
X43934Y106103D01*
X44221Y106171D01*
X44509Y106232D01*
X44798Y106286D01*
X45089Y106333D01*
X45381Y106373D01*
X45674Y106405D01*
X45967Y106430D01*
X46261Y106449D01*
X46556Y106459D01*
X46850Y106463D01*
X47144Y106459D01*
X47439Y106449D01*
X47733Y106430D01*
X48026Y106405D01*
X48319Y106373D01*
X48611Y106333D01*
X48902Y106286D01*
X49191Y106232D01*
X49479Y106171D01*
X49766Y106103D01*
X50051Y106028D01*
X50333Y105946D01*
X50614Y105857D01*
X50893Y105762D01*
X51169Y105659D01*
X51442Y105550D01*
X51713Y105434D01*
X51981Y105311D01*
X52245Y105182D01*
X52507Y105046D01*
X52765Y104904D01*
X53019Y104756D01*
X53270Y104601D01*
X53517Y104441D01*
X53760Y104274D01*
X53998Y104101D01*
X54233Y103923D01*
X54463Y103739D01*
X54688Y103550D01*
X54909Y103354D01*
X55124Y103154D01*
X55335Y102948D01*
X55541Y102737D01*
X55741Y102522D01*
X55937Y102301D01*
X56126Y102076D01*
X56310Y101846D01*
X56488Y101611D01*
X56661Y101373D01*
X56828Y101130D01*
X56988Y100883D01*
X57143Y100632D01*
X57291Y100378D01*
X57433Y100120D01*
X57569Y99858D01*
X57698Y99594D01*
X57821Y99326D01*
X57937Y99055D01*
X58046Y98782D01*
X58149Y98506D01*
X58244Y98227D01*
X58333Y97946D01*
X58415Y97664D01*
X58490Y97379D01*
X58558Y97092D01*
X58619Y96804D01*
X58673Y96515D01*
X58720Y96224D01*
X58760Y95932D01*
X58792Y95639D01*
X58817Y95346D01*
X58836Y95052D01*
X58846Y94757D01*
X58850Y94463D01*
X58846Y94169D01*
X58836Y93874D01*
X58817Y93580D01*
X58792Y93287D01*
X58760Y92994D01*
X58720Y92702D01*
X58673Y92411D01*
X58619Y92122D01*
X58558Y91834D01*
X58490Y91547D01*
X58415Y91262D01*
X58333Y90980D01*
X58244Y90699D01*
X58149Y90420D01*
X58046Y90144D01*
X57937Y89871D01*
X57821Y89600D01*
X57698Y89332D01*
X57569Y89068D01*
X57433Y88806D01*
X57291Y88548D01*
X57143Y88294D01*
X56988Y88043D01*
X56828Y87796D01*
X56661Y87553D01*
X56488Y87315D01*
X56310Y87080D01*
X56126Y86850D01*
X55937Y86625D01*
X55741Y86404D01*
X55541Y86189D01*
X55335Y85978D01*
X55124Y85772D01*
X54909Y85572D01*
X54688Y85376D01*
X54463Y85187D01*
X54233Y85003D01*
X53998Y84825D01*
X53760Y84652D01*
X53517Y84485D01*
X53270Y84325D01*
X53019Y84170D01*
X52765Y84022D01*
X52507Y83880D01*
X52245Y83744D01*
X51981Y83615D01*
X51713Y83492D01*
X51442Y83376D01*
X51169Y83267D01*
X50893Y83164D01*
X50614Y83069D01*
X50333Y82980D01*
X50051Y82898D01*
X49766Y82823D01*
X49479Y82755D01*
X49191Y82694D01*
X48902Y82640D01*
X48611Y82593D01*
X48319Y82553D01*
X48026Y82521D01*
X47733Y82496D01*
X47439Y82477D01*
X47144Y82467D01*
X46850Y82463D01*
X46556Y82467D01*
X46261Y82477D01*
X45967Y82496D01*
X45674Y82521D01*
X45381Y82553D01*
X45089Y82593D01*
X44798Y82640D01*
X44509Y82694D01*
X44221Y82755D01*
X43934Y82823D01*
X43649Y82898D01*
X43367Y82980D01*
X43086Y83069D01*
X42807Y83164D01*
X42531Y83267D01*
X42258Y83376D01*
X41987Y83492D01*
X41719Y83615D01*
X41455Y83744D01*
X41193Y83880D01*
X40935Y84022D01*
X40681Y84170D01*
X40430Y84325D01*
X40183Y84485D01*
X39940Y84652D01*
X39702Y84825D01*
X39467Y85003D01*
X39237Y85187D01*
X39012Y85376D01*
X38791Y85572D01*
X38576Y85772D01*
X38365Y85978D01*
X38159Y86189D01*
X37959Y86404D01*
X37763Y86625D01*
X37574Y86850D01*
X37390Y87080D01*
X37212Y87315D01*
X37039Y87553D01*
X36872Y87796D01*
X36712Y88043D01*
X36557Y88294D01*
X36409Y88548D01*
X36267Y88806D01*
X36131Y89068D01*
X36002Y89332D01*
X35879Y89600D01*
X35763Y89871D01*
X35654Y90144D01*
X35551Y90420D01*
X35456Y90699D01*
X35367Y90980D01*
X35285Y91262D01*
X35210Y91547D01*
X35142Y91834D01*
X35081Y92122D01*
X35027Y92411D01*
X34980Y92702D01*
X34940Y92994D01*
X34908Y93287D01*
X34883Y93580D01*
X34864Y93874D01*
X34854Y94169D01*
X34850Y94463D01*
D16*
X190437Y136906D02*
X190437Y139363D01*
X190437Y138135D02*
X183064Y138135D01*
X183064Y139363D02*
X183064Y136906D01*
X183064Y145582D02*
X184293Y146810D01*
X183064Y145582D02*
X183064Y143124D01*
X184293Y141895D01*
X189208Y141895D01*
X190437Y143124D01*
X190437Y145582D01*
X189208Y146810D01*
X184293Y149380D02*
X183064Y150608D01*
X183064Y153066D01*
X184293Y154294D01*
X185522Y154294D01*
X186750Y153066D01*
X186750Y151837D01*
X186750Y153066D02*
X187979Y154294D01*
X189208Y154294D01*
X190437Y153066D01*
X190437Y150608D01*
X189208Y149380D01*
D11*
X400050Y63500D02*
X406400Y57150D01*
X419100Y57150D02*
X425450Y63500D01*
X400050Y63500D02*
X400050Y127000D01*
X406400Y133350D01*
X419100Y133350D01*
X425450Y127000D01*
X425450Y63500D01*
X419100Y57150D02*
X406400Y57150D01*
D16*
X255440Y223822D02*
X254211Y225050D01*
X251754Y225050D01*
X250525Y223822D01*
X250525Y218907D01*
X251754Y217678D01*
X254211Y217678D01*
X255440Y218907D01*
X258009Y225050D02*
X262924Y225050D01*
X258009Y225050D02*
X258009Y221364D01*
X260467Y222593D01*
X261695Y222593D01*
X262924Y221364D01*
X262924Y218907D01*
X261695Y217678D01*
X259238Y217678D01*
X258009Y218907D01*
M02*
